<?xml version="1.0" encoding="utf-8"?>
<svg id="master-artboard" viewBox="0 0 70 70" version="1.1" xmlns="http://www.w3.org/2000/svg" x="0px" y="0px" style="enable-background:new 0 0 336 235.2;" width="70px" height="70px"><defs><radialGradient id="gradient-0" gradientUnits="objectBoundingBox" cx="0.5" cy="0.5" r="0.5">
                <stop offset="0" style="stop-color: #12100b"/>
                <stop offset="1" style="stop-color: #000000"/>
              </radialGradient><radialGradient id="gradient-1" gradientUnits="objectBoundingBox" cx="0.5" cy="0.5" r="0.5">
                <stop offset="0" style="stop-color: #727872"/>
                <stop offset="1" style="stop-color: #404440"/>
              </radialGradient><radialGradient id="gradient-2" gradientUnits="objectBoundingBox" cx="0.5" cy="0.5" r="0.5">
                <stop offset="0" style="stop-color: #505a50"/>
                <stop offset="1" style="stop-color: #202420"/>
              </radialGradient><radialGradient id="gradient-3" gradientUnits="objectBoundingBox" cx="0.5" cy="0.5" r="0.5">
                <stop offset="0" style="stop-color: #727872"/>
                <stop offset="1" style="stop-color: #404440"/>
              </radialGradient><radialGradient id="gradient-4" gradientUnits="objectBoundingBox" cx="0.5" cy="0.5" r="0.5">
                <stop offset="0" style="stop-color: #727872"/>
                <stop offset="1" style="stop-color: #404440"/>
              </radialGradient><radialGradient id="gradient-5" gradientUnits="objectBoundingBox" cx="0.5" cy="0.5" r="0.5">
                <stop offset="0" style="stop-color: #f2f2f3"/>
                <stop offset="1" style="stop-color: #bdbdc2"/>
              </radialGradient><radialGradient id="gradient-6" gradientUnits="objectBoundingBox" cx="0.5" cy="0.5" r="0.5">
                <stop offset="0" style="stop-color: #d8dad8"/>
                <stop offset="1" style="stop-color: #a4a8a4"/>
              </radialGradient><radialGradient id="gradient-7" gradientUnits="objectBoundingBox" cx="0.5" cy="0.5" r="0.5">
                <stop offset="0" style="stop-color: #b8bdba"/>
                <stop offset="1" style="stop-color: #838c87"/>
              </radialGradient><radialGradient id="gradient-8" gradientUnits="objectBoundingBox" cx="0.5" cy="0.5" r="0.5">
                <stop offset="0" style="stop-color: #727872"/>
                <stop offset="1" style="stop-color: #404440"/>
              </radialGradient><radialGradient id="gradient-9" gradientUnits="objectBoundingBox" cx="0.5" cy="0.5" r="0.5">
                <stop offset="0" style="stop-color: #727872"/>
                <stop offset="1" style="stop-color: #404440"/>
              </radialGradient><radialGradient id="gradient-10" gradientUnits="objectBoundingBox" cx="0.5" cy="0.5" r="0.5">
                <stop offset="0" style="stop-color: #505a50"/>
                <stop offset="1" style="stop-color: #202420"/>
              </radialGradient><radialGradient id="gradient-11" gradientUnits="objectBoundingBox" cx="0.5" cy="0.5" r="0.5">
                <stop offset="0" style="stop-color: #505a50"/>
                <stop offset="1" style="stop-color: #202420"/>
              </radialGradient><radialGradient id="gradient-12" gradientUnits="objectBoundingBox" cx="0.5" cy="0.5" r="0.5">
                <stop offset="0" style="stop-color: #505a50"/>
                <stop offset="1" style="stop-color: #202420"/>
              </radialGradient><radialGradient id="gradient-13" gradientUnits="objectBoundingBox" cx="0.5" cy="0.5" r="0.5">
                <stop offset="0" style="stop-color: #505a50"/>
                <stop offset="1" style="stop-color: #202420"/>
              </radialGradient><radialGradient id="gradient-14" gradientUnits="objectBoundingBox" cx="0.5" cy="0.5" r="0.5">
                <stop offset="0" style="stop-color: #505a50"/>
                <stop offset="1" style="stop-color: #202420"/>
              </radialGradient><radialGradient id="gradient-15" gradientUnits="objectBoundingBox" cx="0.5" cy="0.5" r="0.5">
                <stop offset="0" style="stop-color: #505a50"/>
                <stop offset="1" style="stop-color: #202420"/>
              </radialGradient><radialGradient id="gradient-16" gradientUnits="objectBoundingBox" cx="0.5" cy="0.5" r="0.5">
                <stop offset="0" style="stop-color: #505a50"/>
                <stop offset="1" style="stop-color: #202420"/>
              </radialGradient><radialGradient id="gradient-17" gradientUnits="objectBoundingBox" cx="0.5" cy="0.5" r="0.5">
                <stop offset="0" style="stop-color: #505a50"/>
                <stop offset="1" style="stop-color: #202420"/>
              </radialGradient><radialGradient id="gradient-18" gradientUnits="objectBoundingBox" cx="0.5" cy="0.5" r="0.5">
                <stop offset="0" style="stop-color: #505a50"/>
                <stop offset="1" style="stop-color: #202420"/>
              </radialGradient><radialGradient id="gradient-19" gradientUnits="objectBoundingBox" cx="0.5" cy="0.5" r="0.5">
                <stop offset="0" style="stop-color: #505a50"/>
                <stop offset="1" style="stop-color: #202420"/>
              </radialGradient><radialGradient id="gradient-20" gradientUnits="objectBoundingBox" cx="0.5" cy="0.5" r="0.5">
                <stop offset="0" style="stop-color: #505a50"/>
                <stop offset="1" style="stop-color: #202420"/>
              </radialGradient><radialGradient id="gradient-21" gradientUnits="objectBoundingBox" cx="0.5" cy="0.5" r="0.5">
                <stop offset="0" style="stop-color: #505a50"/>
                <stop offset="1" style="stop-color: #202420"/>
              </radialGradient><radialGradient id="gradient-22" gradientUnits="objectBoundingBox" cx="0.5" cy="0.5" r="0.5">
                <stop offset="0" style="stop-color: #505a50"/>
                <stop offset="1" style="stop-color: #202420"/>
              </radialGradient><radialGradient id="gradient-23" gradientUnits="objectBoundingBox" cx="0.5" cy="0.5" r="0.5">
                <stop offset="0" style="stop-color: #505a50"/>
                <stop offset="1" style="stop-color: #202420"/>
              </radialGradient></defs><rect id="ee-background" x="0" y="0" width="70" height="70" style="fill: white; fill-opacity: 0; pointer-events: none;"/>







<g transform="matrix(1.1189560890197752, 0, 0, 1.0844759941101072, -9.918228553089278, -82.70617063209137)">
	<path class="st1" d="M37.7,132.1c0,0,8.9,7.3,13.1,7.3c4.2,0,16.7-4.4,17.2-6c0.5-1.6-2.6-13.8-4.1-15.4c-1.4-1.6,2.3-4.9,2.5-6&#10;&#9;&#9;c0.2-1.1-8.5-14.2-8.5-14.2S47.7,96.5,44,98.3c-3.7,1.9-9,8-9.2,10C34.6,110.4,34,127.6,37.7,132.1z" style="opacity: 0.15; fill: rgb(18, 16, 11); stroke: rgb(0, 0, 0); stroke-width: 1;"/>
	
		<path d="M 27.299999 89.900002 H 53.699999 V 109.600002 H 27.299999 V 89.900002 Z" transform="matrix(0.5423 0.8402 -0.8402 0.5423 102.3319 11.6379)" class="st4" style="fill: rgb(114, 120, 114); stroke: rgb(0, 0, 0); stroke-width: 1;"/>
	<path d="M 32.900002 93 H 59.300001 V 99.4 H 32.900002 V 93 Z" transform="matrix(0.5423 0.8402 -0.8402 0.5423 101.8556 5.2819)" class="st11" style="fill: rgb(80, 90, 80); stroke: rgb(0, 0, 0); stroke-width: 1;"/>
	<path d="M 16.1 95 H 46.800001 V 116.1 H 16.1 V 95 Z" transform="matrix(0.5423 0.8402 -0.8402 0.5423 103.0984 21.941)" class="st4" style="fill: rgb(114, 120, 114); stroke: rgb(0, 0, 0); stroke-width: 1;"/>
	<path class="st4" d="M53,108.8c-0.6,0.4-1.3,0.2-1.7-0.4L37.1,86.2c-0.4-0.6-0.2-1.3,0.4-1.7l7.4-4.8c0.6-0.4,1.3-0.2,1.7,0.4&#10;&#9;&#9;l14.3,22.2c0.4,0.6,0.2,1.3-0.4,1.7L53,108.8z" style="fill: rgb(114, 120, 114); stroke: rgb(0, 0, 0); stroke-width: 1;"/>
	<path class="st2" d="M39,131.8c-0.7,0.4-1.6,0.2-2-0.4L10.2,89.9c-0.4-0.7-0.2-1.6,0.4-2l11.9-7.7c0.7-0.4,1.6-0.2,2,0.4l26.8,41.5&#10;&#9;&#9;c0.4,0.7,0.2,1.6-0.4,2L39,131.8z" style="fill: rgb(242, 242, 243); stroke: rgb(0, 0, 0); stroke-width: 1;"/>
	<path d="M 40.3 126.300003 A 4.3 4.3 0 0 1 36 130.600003 A 4.3 4.3 0 0 1 31.7 126.300003 A 4.3 4.3 0 0 1 36 122.000003 A 4.3 4.3 0 0 1 40.3 126.300003 Z" class="st3" style="fill: rgb(216, 218, 216); stroke: rgb(0, 0, 0); stroke-width: 1;"/>
	<path d="M 48.099998 121.199997 A 2 2 0 0 1 46.099998 123.199997 A 2 2 0 0 1 44.099998 121.199997 A 2 2 0 0 1 46.099998 119.199997 A 2 2 0 0 1 48.099998 121.199997 Z" class="st12" style="fill: rgb(184, 189, 186); stroke: rgb(0, 0, 0); stroke-width: 1;"/>
	<path d="M 9.6 93.699997 H 24.5 V 96.299997 H 9.6 V 93.699997 Z" transform="matrix(0.5423 0.8402 -0.8402 0.5423 87.5901 29.1038)" class="st4" style="fill: rgb(114, 120, 114); stroke: rgb(0, 0, 0); stroke-width: 1;"/>
	<path d="M 26 99.400002 H 35 V 113.100001 H 26 V 99.400002 Z" transform="matrix(0.5424 0.8401 -0.8401 0.5424 103.1709 22.9859)" class="st4" style="fill: rgb(114, 120, 114); stroke: rgb(0, 0, 0); stroke-width: 1;"/>
	<g>
		<path d="M 35.700001 87.300003 H 36.000001 V 91.100003 H 35.700001 V 87.300003 Z" transform="matrix(0.5426 0.84 -0.84 0.5426 91.305 10.6753)" class="st11" style="fill: rgb(80, 90, 80); stroke: rgb(0, 0, 0); stroke-width: 1;"/>
		
			<path d="M 36.700001 88.699997 H 37.000001 V 92.499997 H 36.700001 V 88.699997 Z" transform="matrix(0.5424 0.8401 -0.8401 0.5424 92.9956 10.5632)" class="st11" style="fill: rgb(80, 90, 80); stroke: rgb(0, 0, 0); stroke-width: 1;"/>
		
			<path d="M 37.599998 90.199997 H 37.899998 V 93.999997 H 37.599998 V 90.199997 Z" transform="matrix(0.5424 0.8401 -0.8401 0.5424 94.6712 10.4769)" class="st11" style="fill: rgb(80, 90, 80); stroke: rgb(0, 0, 0); stroke-width: 1;"/>
		
			<path d="M 38.5 91.699997 H 38.8 V 95.499997 H 38.5 V 91.699997 Z" transform="matrix(0.5416 0.8407 -0.8407 0.5416 96.4267 10.4461)" class="st11" style="fill: rgb(80, 90, 80); stroke: rgb(0, 0, 0); stroke-width: 1;"/>
		
			<path d="M 39.400002 93.199997 H 39.700002 V 96.999997 H 39.400002 V 93.199997 Z" transform="matrix(0.5409 0.8411 -0.8411 0.5409 98.162 10.3651)" class="st11" style="fill: rgb(80, 90, 80); stroke: rgb(0, 0, 0); stroke-width: 1;"/>
		
			<path d="M 40.400002 94.699997 H 40.700002 V 98.499997 H 40.400002 V 94.699997 Z" transform="matrix(0.5404 0.8414 -0.8414 0.5404 99.895 10.2809)" class="st11" style="fill: rgb(80, 90, 80); stroke: rgb(0, 0, 0); stroke-width: 1;"/>
		
			<path d="M 41.400002 96.099998 H 41.700002 V 99.899998 H 41.400002 V 96.099998 Z" transform="matrix(0.5418 0.8405 -0.8405 0.5418 101.4221 10.0197)" class="st11" style="fill: rgb(80, 90, 80); stroke: rgb(0, 0, 0); stroke-width: 1;"/>
		
			<path d="M 42.299999 97.599998 H 42.599999 V 101.399998 H 42.299999 V 97.599998 Z" transform="matrix(0.5432 0.8396 -0.8396 0.5432 102.9425 9.7927)" class="st11" style="fill: rgb(80, 90, 80); stroke: rgb(0, 0, 0); stroke-width: 1;"/>
		
			<path d="M 43.299999 99.099998 H 43.599999 V 102.899998 H 43.299999 V 99.099998 Z" transform="matrix(0.5401 0.8416 -0.8416 0.5401 104.9482 9.8925)" class="st11" style="fill: rgb(80, 90, 80); stroke: rgb(0, 0, 0); stroke-width: 1;"/>
		
			<path d="M 44.200001 100.5 H 44.500001 V 104.3 H 44.200001 V 100.5 Z" transform="matrix(0.5391 0.8422 -0.8422 0.5391 106.7351 9.8438)" class="st11" style="fill: rgb(80, 90, 80); stroke: rgb(0, 0, 0); stroke-width: 1;"/>
		
			<path d="M 45.200001 102 H 45.500001 V 105.8 H 45.200001 V 102 Z" transform="matrix(0.5436 0.8393 -0.8393 0.5436 107.9084 9.3855)" class="st11" style="fill: rgb(80, 90, 80); stroke: rgb(0, 0, 0); stroke-width: 1;"/>
		
			<path d="M 46.099998 103.5 H 46.399998 V 107.3 H 46.099998 V 103.5 Z" transform="matrix(0.5435 0.8394 -0.8394 0.5435 109.5935 9.2699)" class="st11" style="fill: rgb(80, 90, 80); stroke: rgb(0, 0, 0); stroke-width: 1;"/>
		
			<path d="M 47.099998 104.900002 H 47.399998 V 108.700001 H 47.099998 V 104.900002 Z" transform="matrix(0.5404 0.8414 -0.8414 0.5404 111.6252 9.382)" class="st11" style="fill: rgb(80, 90, 80); stroke: rgb(0, 0, 0); stroke-width: 1;"/>
		
			<path d="M 48 106.400002 H 48.3 V 110.200001 H 48 V 106.400002 Z" transform="matrix(0.5432 0.8396 -0.8396 0.5432 112.9715 9.0427)" class="st11" style="fill: rgb(80, 90, 80); stroke: rgb(0, 0, 0); stroke-width: 1;"/>
	</g>
</g>






</svg>